<?xml version="1.0" encoding="UTF-8"?>
<svg width="1000px" height="1000px" viewBox="0 0 1000 1000" version="1.1" xmlns="http://www.w3.org/2000/svg" xmlns:xlink="http://www.w3.org/1999/xlink">
    <title>Artboard</title>
    <g id="Artboard" stroke="none" stroke-width="1" fill="none" fill-rule="evenodd">
        <g id="Group-Smiley" transform="translate(235.000000, 235.000000)">
            <g id="Group-5" transform="translate(61.000000, 87.000000)">
                <g id="Path-7" transform="translate(0.000000, 109.000000)" stroke="#FFFFFF" stroke-linecap="round">
                    <path d="M0,58 C0,43.3333333 4.33333333,31.3333333 13,22 C26,8 34,1 41,1 C48,1 55.8509366,4.19391883 69,14 C77.7660423,20.5373874 88.0993756,30.5373874 100,44" id="Path-6" stroke-width="2"></path>
                    <path d="M41,0 C48,0 55.8509366,3.19391883 69,13 C77.7660423,19.5373874 88.0993756,29.5373874 100,43" id="Path-6" stroke-width="4"></path>
                </g>
                <path d="M81,0 C128.003146,0 141,48 144,62 C148.666667,90.6666667 143,114 127,132 C119.666667,139.333333 112.333333,143.666667 105,145 C100.333333,145 96.6666667,144.333333 94,143 C78.4686126,130.322171 67.8019459,121.988838 62,118 C56.1980541,114.011162 50.8647207,111.344496 46,110 L42,109 L33,112 L30,110 C28.6666667,109.333333 27.3333333,107.666667 26,105 C24,101 20,91 20,74 C20,57 28,7 81,0 Z M84,35 C64.6700338,35 49,50.6700338 49,70 C49,89.3299662 64.6700338,105 84,105 C103.329966,105 119,89.3299662 119,70 C119,50.6700338 103.329966,35 84,35 Z" id="Combined-Shape" fill="#FFFFFF"></path>
            </g>
            <g id="Path-7" transform="translate(419.580645, 225.000000) scale(-1, 1) translate(-419.580645, -225.000000) translate(369.580645, 196.000000)" stroke="#FFFFFF" stroke-linecap="round">
                <path d="M0,58 C0,43.3333333 4.33333333,31.3333333 13,22 C26,8 34,1 41,1 C48,1 55.8509366,4.19391883 69,14 C77.7660423,20.5373874 88.0993756,30.5373874 100,44" id="Path-6" stroke-width="2"></path>
                <path d="M41,0 C48,0 55.8509366,3.19391883 69,13 C77.7660423,19.5373874 88.0993756,29.5373874 100,43" id="Path-6" stroke-width="4"></path>
            </g>
            <path d="M388.580645,87 C441.580645,94 449.580645,144 449.580645,161 C449.580645,178 445.580645,188 443.580645,192 C442.247312,194.666667 440.913978,196.333333 439.580645,197 L439.580645,197 L436.580645,199 L427.580645,196 L423.580645,197 C418.715924,198.344496 413.382591,201.011162 407.580645,205 C401.778699,208.988838 391.112033,217.322171 375.580645,230 C372.913978,231.333333 369.247312,232 364.580645,232 C357.247312,230.666667 349.913978,226.333333 342.580645,219 C326.580645,201 320.913978,177.666667 325.580645,149 C328.580645,135 341.577499,87 388.580645,87 Z M383,122 C363.670034,122 348,137.670034 348,157 C348,176.329966 363.670034,192 383,192 C402.329966,192 418,176.329966 418,157 C418,137.670034 402.329966,122 383,122 Z" id="Combined-Shape" stroke="#FFFFFF" stroke-width="2" fill="#FFFFFF" stroke-linecap="round"></path>
            <circle id="Oval" stroke="#FFFFFF" stroke-width="11" cx="265" cy="265" r="265"></circle>
            <path d="M101,264 C104.333333,260.666667 106.666667,258.333333 108,257 C110,256.333333 115.666667,255 125,253 L130,252 L136.655393,251.04923 C136.878564,251.017348 137.105959,251.061809 137.300686,251.1754 L149,258 L149,258 L139.683838,246.98999 C138.619424,245.732013 137.003207,245.080058 135.363803,245.246902 C130.978959,245.69508 127.191025,246.279446 124,247 C118.279062,248.291825 111.800393,250.099803 108,252 C106,254 105,255 104,257 C103.333333,258.333333 102.333333,260.666667 101,264 Z" id="Path-8" stroke="#FFFFFF" fill="#FFFFFF" stroke-linejoin="round"></path>
            <path d="M383,264 C386.333333,260.666667 388.666667,258.333333 390,257 C392,256.333333 397.666667,255 407,253 L412,252 L418.655393,251.04923 C418.878564,251.017348 419.105959,251.061809 419.300686,251.1754 L431,258 L431,258 L421.683838,246.98999 C420.619424,245.732013 419.003207,245.080058 417.363803,245.246902 C412.978959,245.69508 409.191025,246.279446 406,247 C400.279062,248.291825 393.800393,250.099803 390,252 C388,254 387,255 386,257 C385.333333,258.333333 384.333333,260.666667 383,264 Z" id="Path-8" stroke="#FFFFFF" fill="#FFFFFF" stroke-linejoin="round" transform="translate(407.000000, 254.500000) scale(-1, 1) translate(-407.000000, -254.500000) "></path>
            <g id="Group-6" transform="translate(123.000000, 252.000000)" fill="#FFFFFF">
                <path d="M280,0 C269.333333,17.3333333 261.333333,28.3333333 256,33 C247,38 239.725239,39.9818224 230,43 C220.274761,46.0181776 211.942706,48.2114588 198,51 C184.057294,53.7885412 179.310337,53.9843269 170,55 C163.793109,55.6771154 154.793109,56.3437821 143,57 L143,85 L147,85 C166.333333,78.3333333 177.333333,74.6666667 180,74 C184,73 189,72 198,72 C207,73 216,78 223,84 C230,90 234,92 243,105 C252,118 256,132 258,144 C260,156 262,165 261,170 C260,175 253.072814,186.792522 243,195 C232.927186,203.207478 224.251192,206.934264 208,214 C191.748808,221.065736 185.478301,222.309773 174,225 C166.347799,226.793485 156.014466,228.126818 143,229 L143,235 C157.299059,234.754026 167.632392,234.08736 174,233 C187.872698,230.631039 201.077599,225.368961 207,223 C222,217 229.85327,211.795146 238,206 C255.514026,193.541463 263.634956,182.00516 265,177 C268,166 267,159 264,144 C261,129 258,110 247,98 C252,93 268.802275,50.7535365 273,41 C277.197725,31.2464635 278.737761,26.1637583 281,19 C282.50816,14.2241611 284.174826,8.55749447 286,2 L280,0 Z" id="Path-9"></path>
                <path d="M137,0 C126.333333,17.3333333 118.333333,28.3333333 113,33 C104,38 96.725239,39.9818224 87,43 C77.274761,46.0181776 68.9427058,48.2114588 55,51 C41.0572942,53.7885412 36.3103371,53.9843269 27,55 C20.7931086,55.6771154 11.7931086,56.3437821 0,57 L0,85 L4,85 C23.3333333,78.3333333 34.3333333,74.6666667 37,74 C41,73 46,72 55,72 C64,73 73,78 80,84 C87,90 91,92 100,105 C109,118 113,132 115,144 C117,156 119,165 118,170 C117,175 110.072814,186.792522 100,195 C89.9271858,203.207478 81.2511924,206.934264 65,214 C48.7488076,221.065736 42.478301,222.309773 31,225 C23.3477993,226.793485 13.014466,228.126818 0,229 L0,235 C14.2990589,234.754026 24.6323922,234.08736 31,233 C44.8726982,230.631039 58.0775986,225.368961 64,223 C79,217 86.8532698,211.795146 95,206 C112.514026,193.541463 120.634956,182.00516 122,177 C125,166 124,159 121,144 C118,129 115,110 104,98 C109,93 125.802275,50.7535365 130,41 C134.197725,31.2464635 135.737761,26.1637583 138,19 C139.50816,14.2241611 141.174826,8.55749447 143,2 L137,0 Z" id="Path-9" transform="translate(71.500000, 117.500000) scale(-1, 1) translate(-71.500000, -117.500000) "></path>
                <path d="M147,84.8 L144,181.8 L143,181.8 C140.333333,117.133333 139,84.8 139,84.8 C139,84.8 141.666667,84.8 147,84.8 Z" id="Path-3"></path>
            </g>
            <g id="Group-3" transform="translate(348.000000, 122.000000)"></g>
        </g>
        <g id="Group-4" transform="translate(500.002500, 500.002500) rotate(-5.000000) translate(-500.002500, -500.002500) translate(-20.906707, -20.906707)">
            <circle id="Oval" stroke="#FFFFFF" stroke-width="10" cx="520.906707" cy="520.906707" r="480"></circle>
            <g id="Group-3" transform="translate(0.000000, 0.000000)" fill="#FFFFFF">
                <g id="Ring-außen" transform="translate(0.000000, 0.000000)">
                    <g id="Major-tickmarks" transform="translate(60.906707, 60.906707)">
                        <path d="M460,0 C624.34,0 776.2,87.68 858.37,230 C940.54,372.32 940.54,547.68 858.37,690 C776.2,832.32 624.34,920 460,920 C295.66,920 143.8,832.32 61.63,690 C-20.54,547.68 -20.54,372.32 61.63,230 C143.8,87.68 295.66,0 460,0 L460,12 C299.95,12 152.05,97.39 72.02,236 C-8.01,374.61 -8.01,545.39 72.02,684 C152.05,822.61 299.95,908 460,908 C620.05,908 767.95,822.61 847.98,684 C928.01,545.39 928.01,374.61 847.98,236 C767.95,97.39 620.05,12 460,12 L460,0 Z" id="Base-plate" fill-opacity="0.002"></path>
                        <path d="M387.933142,5.8038447 C435.679342,-1.76794823 484.320658,-1.76794823 532.066858,5.8038447 L532.066858,5.8038447 L530.216237,17.4069433 C483.69396,10.0210188 436.30604,10.0210188 389.783763,17.4069433 L389.783763,17.4069433 Z" id="Tick-major-0" stroke="#FFFFFF" stroke-width="0.25"></path>
                        <path d="M567.232495,12.8006977 C614.245043,24.0709015 659.173936,42.6931199 700.388076,67.9611973 L700.388076,67.9611973 L694.248812,77.9680995 C654.09219,53.3462661 610.308816,35.213855 564.500622,24.2275615 L564.500622,24.2275615 Z" id="Tick-major-3" stroke="#FFFFFF" stroke-width="0.25"></path>
                        <path d="M730.207714,87.884586 C769.321492,116.288237 803.711763,150.678508 832.115414,189.792286 L832.115414,189.792286 L822.607714,196.695405 C794.928625,158.580359 761.419641,125.071375 723.304595,97.3922857 L723.304595,97.3922857 Z" id="Tick-major-6" stroke="#FFFFFF" stroke-width="0.25"></path>
                        <path d="M852.038803,219.611924 C877.30688,260.826064 895.929098,305.754957 907.199302,352.767505 L907.199302,352.767505 L895.772438,355.499378 C884.786145,309.691184 866.653734,265.90781 842.031901,225.751188 L842.031901,225.751188 Z" id="Tick-major-9" stroke="#FFFFFF" stroke-width="0.25"></path>
                        <path d="M914.196155,387.933142 C921.767948,435.679342 921.767948,484.320658 914.196155,532.066858 L914.196155,532.066858 L902.593057,530.216237 C909.978981,483.69396 909.978981,436.30604 902.593057,389.783763 L902.593057,389.783763 Z" id="Tick-major-12" stroke="#FFFFFF" stroke-width="0.25"></path>
                        <path d="M895.772438,564.500622 L907.199302,567.232495 C895.929098,614.245043 877.30688,659.173936 852.038803,700.388076 L852.038803,700.388076 L842.031901,694.248812 C866.653734,654.09219 884.786145,610.308816 895.772438,564.500622 L895.772438,564.500622 Z" id="Tick-major-15" stroke="#FFFFFF" stroke-width="0.25"></path>
                        <path d="M822.607714,723.304595 L832.115414,730.207714 C803.711763,769.321492 769.321492,803.711763 730.207714,832.115414 L730.207714,832.115414 L723.304595,822.607714 C761.419641,794.928625 794.928625,761.419641 822.607714,723.304595 L822.607714,723.304595 Z" id="Tick-major-18" stroke="#FFFFFF" stroke-width="0.25"></path>
                        <path d="M694.248812,842.031901 L700.388076,852.038803 C659.173936,877.30688 614.245043,895.929098 567.232495,907.199302 L567.232495,907.199302 L564.500622,895.772438 C610.308816,884.786145 654.09219,866.653734 694.248812,842.031901 L694.248812,842.031901 Z" id="Tick-major-21" stroke="#FFFFFF" stroke-width="0.25"></path>
                        <path d="M530.216237,902.593057 L532.066858,914.196155 C484.320658,921.767948 435.679342,921.767948 387.933142,914.196155 L387.933142,914.196155 L389.783763,902.593057 C436.30604,909.978981 483.69396,909.978981 530.216237,902.593057 L530.216237,902.593057 Z" id="Tick-major-24" stroke="#FFFFFF" stroke-width="0.25"></path>
                        <path d="M225.751188,842.031901 C265.90781,866.653734 309.691184,884.786145 355.499378,895.772438 L355.499378,895.772438 L352.767505,907.199302 C305.754957,895.929098 260.826064,877.30688 219.611924,852.038803 L219.611924,852.038803 Z" id="Tick-major-27" stroke="#FFFFFF" stroke-width="0.25"></path>
                        <path d="M97.3922857,723.304595 C125.071375,761.419641 158.580359,794.928625 196.695405,822.607714 L196.695405,822.607714 L189.792286,832.115414 C150.678508,803.711763 116.288237,769.321492 87.884586,730.207714 L87.884586,730.207714 Z" id="Tick-major-30" stroke="#FFFFFF" stroke-width="0.25"></path>
                        <path d="M24.2275615,564.500622 C35.213855,610.308816 53.3462661,654.09219 77.9680995,694.248812 L77.9680995,694.248812 L67.9611973,700.388076 C42.6931199,659.173936 24.0709015,614.245043 12.8006977,567.232495 L12.8006977,567.232495 Z" id="Tick-major-33" stroke="#FFFFFF" stroke-width="0.25"></path>
                        <path d="M5.8038447,387.933142 L17.4069433,389.783763 C10.0210188,436.30604 10.0210188,483.69396 17.4069433,530.216237 L17.4069433,530.216237 L5.8038447,532.066858 C-1.76794823,484.320658 -1.76794823,435.679342 5.8038447,387.933142 L5.8038447,387.933142 Z" id="Tick-major-36" stroke="#FFFFFF" stroke-width="0.25"></path>
                        <path d="M67.9611973,219.611924 L77.9680995,225.751188 C53.3462661,265.90781 35.213855,309.691184 24.2275615,355.499378 L24.2275615,355.499378 L12.8006977,352.767505 C24.0709015,305.754957 42.6931199,260.826064 67.9611973,219.611924 L67.9611973,219.611924 Z" id="Tick-major-39" stroke="#FFFFFF" stroke-width="0.25"></path>
                        <path d="M189.792286,87.884586 L196.695405,97.3922857 C158.580359,125.071375 125.071375,158.580359 97.3922857,196.695405 L97.3922857,196.695405 L87.884586,189.792286 C116.288237,150.678508 150.678508,116.288237 189.792286,87.884586 L189.792286,87.884586 Z" id="Tick-major-42" stroke="#FFFFFF" stroke-width="0.25"></path>
                        <path d="M352.767505,12.8006977 L355.499378,24.2275615 C309.691184,35.213855 265.90781,53.3462661 225.751188,77.9680995 L225.751188,77.9680995 L219.611924,67.9611973 C260.826064,42.6931199 305.754957,24.0709015 352.767505,12.8006977 L352.767505,12.8006977 Z" id="Tick-major-45" stroke="#FFFFFF" stroke-width="0.25"></path>
                    </g>
                    <g id="Tickmarks-circle" transform="translate(180.906707, 180.906707)">
                        <g id="Minor-tickmarks" transform="translate(0.000000, 0.002500)">
                            <path d="M340.005,0 C461.475,0 573.715,64.8 634.455,170 C695.195,275.2 695.195,404.8 634.455,510 C573.715,615.2 461.475,680 340.005,680 C218.535,680 106.295,615.2 45.555,510 C-15.185,404.8 -15.185,275.2 45.555,170 C106.295,64.8 218.535,0 340.005,0 L340.005,5 C220.325,5 109.725,68.85 49.885,172.5 C-9.955,276.15 -9.955,403.85 49.885,507.5 C109.725,611.15 220.325,675 340.005,675 C459.685,675 570.285,611.15 630.125,507.5 C689.965,403.85 689.965,276.15 630.125,172.5 C570.285,68.85 459.685,5 340.005,5 L340.005,0 Z" id="Base-plate" fill-opacity="0.002"></path>
                            <path d="M340.005,0.127500005 L342.379002,0.134266412 L342.341002,4.88426087 C340.783667,4.87524638 339.226333,4.87524638 337.668998,4.88426087 L337.668998,4.88426087 L337.630998,0.134266412 C339.216523,0.125244535 340.793477,0.125244535 342.379002,0.134266412 Z" id="Tick-minor-0" stroke="#FFFFFF" stroke-width="0.25"></path>
                            <path d="M382.013496,2.72981202 C383.748481,2.95056557 385.243395,3.14115585 386.723968,3.34658945 L386.723968,3.34658945 L386.068447,8.05874603 C384.520488,7.84081007 382.972528,7.63211915 381.424569,7.44122627 L381.424569,7.44122627 Z" id="Tick-minor-1" stroke="#FFFFFF" stroke-width="0.25"></path>
                            <path d="M425.674456,11.1025385 C427.20336,11.5018589 428.732264,11.9102 430.261167,12.3275616 L430.261167,12.3275616 L428.99782,16.9060095 C427.496988,16.4891496 425.987373,16.0900835 424.477528,15.7002618 L424.477528,15.7002618 Z" id="Tick-minor-2" stroke="#FFFFFF" stroke-width="0.25"></path>
                            <path d="M467.873747,25.0931981 C469.33618,25.6919432 470.798612,26.2997088 472.261044,26.9164949 L472.261044,26.9164949 L470.408681,31.2861735 C468.974281,30.6793699 467.531096,30.0901346 466.087682,29.5013588 L466.087682,29.5013588 Z" id="Tick-minor-3" stroke="#FFFFFF" stroke-width="0.25"></path>
                            <path d="M507.882065,44.4802673 C509.258566,45.2599042 510.626269,46.0571354 511.993748,46.8548162 L511.993748,46.8548162 L509.590353,50.9491361 C508.241807,50.1613851 506.893033,49.3826505 505.535472,48.612931 L505.535472,48.612931 Z" id="Tick-minor-4" stroke="#FFFFFF" stroke-width="0.25"></path>
                            <path d="M545.019492,68.9248432 C546.28228,69.875254 547.544618,70.8432525 548.789372,71.8117041 L548.789372,71.8117041 L545.863272,75.5548318 C544.629109,74.596103 543.403278,73.6463928 542.160102,72.705697 L542.160102,72.705697 Z" id="Tick-minor-5" stroke="#FFFFFF" stroke-width="0.25"></path>
                            <path d="M578.646355,97.9966663 C579.776038,99.1083027 580.896697,100.228962 582.008334,101.358645 L582.008334,101.358645 L578.626368,104.693111 C577.533406,103.582123 576.422877,102.471594 575.311889,101.378632 L575.311889,101.378632 Z" id="Tick-minor-6" stroke="#FFFFFF" stroke-width="0.25"></path>
                            <path d="M608.193296,131.215628 C609.161748,132.460382 610.129746,133.72272 611.080157,134.985508 L611.080157,134.985508 L607.299303,137.844898 C606.358607,136.601722 605.408897,135.375891 604.450168,134.141728 L604.450168,134.141728 Z" id="Tick-minor-7" stroke="#FFFFFF" stroke-width="0.25"></path>
                            <path d="M633.150184,168.011252 C633.947865,169.378731 634.745096,170.746434 635.524733,172.122935 L635.524733,172.122935 L631.392069,174.469528 C630.622349,173.111967 629.843615,171.763193 629.055864,170.414647 L629.055864,170.414647 Z" id="Tick-minor-8" stroke="#FFFFFF" stroke-width="0.25"></path>
                            <path d="M653.088505,207.743956 C653.705291,209.206388 654.313057,210.66882 654.911802,212.131253 L654.911802,212.131253 L650.503641,213.917318 C649.914865,212.473904 649.32563,211.030719 648.718827,209.596319 L648.718827,209.596319 Z" id="Tick-minor-9" stroke="#FFFFFF" stroke-width="0.25"></path>
                            <path d="M667.677438,249.743833 C668.0948,251.272736 668.503141,252.80164 668.902462,254.330544 L668.902462,254.330544 L664.304738,255.527472 C663.914917,254.017627 663.51585,252.508012 663.09899,251.00718 L663.09899,251.00718 Z" id="Tick-minor-10" stroke="#FFFFFF" stroke-width="0.25"></path>
                            <path d="M676.658411,293.281032 C676.863274,294.757481 677.052526,296.241535 677.240497,297.718868 L677.240497,297.718868 L672.562885,298.573227 C672.372233,297.027669 672.163852,295.482111 671.946254,293.936553 L671.946254,293.936553 Z" id="Tick-minor-11" stroke="#FFFFFF" stroke-width="0.25"></path>
                            <path d="M679.870734,337.625998 C679.879755,339.211523 679.879755,340.788477 679.870734,342.374002 L679.870734,342.374002 L675.120739,342.336002 C675.129754,340.778667 675.129754,339.221333 675.120739,337.663998 L675.120739,337.663998 Z" id="Tick-minor-12" stroke="#FFFFFF" stroke-width="0.25"></path>
                            <path d="M672.563774,381.419569 L677.275188,382.008496 C677.054434,383.743481 676.863844,385.238395 676.658411,386.718968 L676.658411,386.718968 L671.946254,386.063447 C672.16419,384.515488 672.372881,382.967528 672.563774,381.419569 L672.563774,381.419569 Z" id="Tick-minor-13" stroke="#FFFFFF" stroke-width="0.25"></path>
                            <path d="M664.304738,424.472528 L668.902462,425.669456 C668.503141,427.19836 668.0948,428.727264 667.677438,430.256167 L667.677438,430.256167 L663.09899,428.99282 C663.51585,427.491988 663.914917,425.982373 664.304738,424.472528 L664.304738,424.472528 Z" id="Tick-minor-14" stroke="#FFFFFF" stroke-width="0.25"></path>
                            <path d="M650.503641,466.082682 L654.911802,467.868747 C654.313057,469.33118 653.705291,470.793612 653.088505,472.256044 L653.088505,472.256044 L648.718827,470.403681 C649.32563,468.969281 649.914865,467.526096 650.503641,466.082682 L650.503641,466.082682 Z" id="Tick-minor-15" stroke="#FFFFFF" stroke-width="0.25"></path>
                            <path d="M631.392069,505.530472 L635.524733,507.877065 C634.745096,509.253566 633.947865,510.621269 633.150184,511.988748 L633.150184,511.988748 L629.055864,509.585353 C629.843615,508.236807 630.622349,506.888033 631.392069,505.530472 L631.392069,505.530472 Z" id="Tick-minor-16" stroke="#FFFFFF" stroke-width="0.25"></path>
                            <path d="M607.299303,542.155102 L611.080157,545.014492 C610.129746,546.27728 609.161748,547.539618 608.193296,548.784372 L608.193296,548.784372 L604.450168,545.858272 C605.408897,544.624109 606.358607,543.398278 607.299303,542.155102 L607.299303,542.155102 Z" id="Tick-minor-17" stroke="#FFFFFF" stroke-width="0.25"></path>
                            <path d="M578.626368,575.306889 L582.008334,578.641355 C580.896697,579.771038 579.776038,580.891697 578.646355,582.003334 L578.646355,582.003334 L575.311889,578.621368 C576.422877,577.528406 577.533406,576.417877 578.626368,575.306889 L578.626368,575.306889 Z" id="Tick-minor-18" stroke="#FFFFFF" stroke-width="0.25"></path>
                            <path d="M545.863272,604.445168 L548.789372,608.188296 C547.544618,609.156748 546.28228,610.124746 545.019492,611.075157 L545.019492,611.075157 L542.160102,607.294303 C543.403278,606.353607 544.629109,605.403897 545.863272,604.445168 L545.863272,604.445168 Z" id="Tick-minor-19" stroke="#FFFFFF" stroke-width="0.25"></path>
                            <path d="M509.590353,629.050864 L511.993748,633.145184 C510.626269,633.942865 509.258566,634.740096 507.882065,635.519733 L507.882065,635.519733 L505.535472,631.387069 C506.893033,630.617349 508.241807,629.838615 509.590353,629.050864 L509.590353,629.050864 Z" id="Tick-minor-20" stroke="#FFFFFF" stroke-width="0.25"></path>
                            <path d="M470.408681,648.713827 L472.261044,653.083505 C470.798612,653.700291 469.33618,654.308057 467.873747,654.906802 L467.873747,654.906802 L466.087682,650.498641 C467.531096,649.909865 468.974281,649.32063 470.408681,648.713827 L470.408681,648.713827 Z" id="Tick-minor-21" stroke="#FFFFFF" stroke-width="0.25"></path>
                            <path d="M428.99782,663.09399 L430.261167,667.672438 C428.732264,668.0898 427.20336,668.498141 425.674456,668.897462 L425.674456,668.897462 L424.477528,664.299738 C425.987373,663.909917 427.496988,663.51085 428.99782,663.09399 L428.99782,663.09399 Z" id="Tick-minor-22" stroke="#FFFFFF" stroke-width="0.25"></path>
                            <path d="M386.068447,671.941254 L386.723968,676.653411 C385.247519,676.858274 383.763465,677.047526 382.286132,677.235497 L382.286132,677.235497 L381.431773,672.557885 C382.977331,672.367233 384.522889,672.158852 386.068447,671.941254 L386.068447,671.941254 Z" id="Tick-minor-23" stroke="#FFFFFF" stroke-width="0.25"></path>
                            <path d="M342.341002,675.115739 L342.379002,679.865734 C340.793477,679.874755 339.216523,679.874755 337.630998,679.865734 L337.630998,679.865734 L337.668998,675.115739 C339.226333,675.124754 340.783667,675.124754 342.341002,675.115739 L342.341002,675.115739 Z" id="Tick-minor-24" stroke="#FFFFFF" stroke-width="0.25"></path>
                            <path d="M293.941553,671.941254 C295.489512,672.15919 297.037472,672.367881 298.585431,672.558774 L298.585431,672.558774 L297.996504,677.270188 C296.261519,677.049434 294.766605,676.858844 293.286032,676.653411 L293.286032,676.653411 Z" id="Tick-minor-25" stroke="#FFFFFF" stroke-width="0.25"></path>
                            <path d="M251.01218,663.09399 C252.513012,663.51085 254.022627,663.909917 255.532472,664.299738 L255.532472,664.299738 L254.335544,668.897462 C252.80664,668.498141 251.277736,668.0898 249.748833,667.672438 L249.748833,667.672438 Z" id="Tick-minor-26" stroke="#FFFFFF" stroke-width="0.25"></path>
                            <path d="M209.601319,648.713827 C211.035719,649.32063 212.478904,649.909865 213.922318,650.498641 L213.922318,650.498641 L212.136253,654.906802 C210.67382,654.308057 209.211388,653.700291 207.748956,653.083505 L207.748956,653.083505 Z" id="Tick-minor-27" stroke="#FFFFFF" stroke-width="0.25"></path>
                            <path d="M170.419647,629.050864 C171.768193,629.838615 173.116967,630.617349 174.474528,631.387069 L174.474528,631.387069 L172.127935,635.519733 C170.751434,634.740096 169.383731,633.942865 168.016252,633.145184 L168.016252,633.145184 Z" id="Tick-minor-28" stroke="#FFFFFF" stroke-width="0.25"></path>
                            <path d="M134.146728,604.445168 C135.380891,605.403897 136.606722,606.353607 137.849898,607.294303 L137.849898,607.294303 L134.990508,611.075157 C133.72772,610.124746 132.465382,609.156748 131.220628,608.188296 L131.220628,608.188296 Z" id="Tick-minor-29" stroke="#FFFFFF" stroke-width="0.25"></path>
                            <path d="M101.383632,575.306889 C102.476594,576.417877 103.587123,577.528406 104.698111,578.621368 L104.698111,578.621368 L101.363645,582.003334 C100.233962,580.891697 99.1133027,579.771038 98.0016663,578.641355 L98.0016663,578.641355 Z" id="Tick-minor-30" stroke="#FFFFFF" stroke-width="0.25"></path>
                            <path d="M72.710697,542.155102 C73.6513928,543.398278 74.601103,544.624109 75.5598318,545.858272 L75.5598318,545.858272 L71.8167041,548.784372 C70.8482525,547.539618 69.880254,546.27728 68.9298432,545.014492 L68.9298432,545.014492 Z" id="Tick-minor-31" stroke="#FFFFFF" stroke-width="0.25"></path>
                            <path d="M48.617931,505.530472 C49.3876505,506.888033 50.1663851,508.236807 50.9541361,509.585353 L50.9541361,509.585353 L46.8598162,511.988748 C46.0621354,510.621269 45.2649042,509.253566 44.4852673,507.877065 L44.4852673,507.877065 Z" id="Tick-minor-32" stroke="#FFFFFF" stroke-width="0.25"></path>
                            <path d="M29.5063588,466.082682 C30.0951346,467.526096 30.6843699,468.969281 31.2911735,470.403681 L31.2911735,470.403681 L26.9214949,472.256044 C26.3047088,470.793612 25.6969432,469.33118 25.0981981,467.868747 L25.0981981,467.868747 Z" id="Tick-minor-33" stroke="#FFFFFF" stroke-width="0.25"></path>
                            <path d="M15.7052618,424.472528 C16.0950835,425.982373 16.4941496,427.491988 16.9110095,428.99282 L16.9110095,428.99282 L12.3325616,430.256167 C11.9152,428.727264 11.5068589,427.19836 11.1075385,425.669456 L11.1075385,425.669456 Z" id="Tick-minor-34" stroke="#FFFFFF" stroke-width="0.25"></path>
                            <path d="M7.44711473,381.426773 C7.63776661,382.972331 7.84614813,384.517889 8.06374603,386.063447 L8.06374603,386.063447 L3.35158939,386.718968 C3.14672593,385.242519 2.95747419,383.758465 2.76950316,382.281132 L2.76950316,382.281132 Z" id="Tick-minor-35" stroke="#FFFFFF" stroke-width="0.25"></path>
                            <path d="M0.139266412,337.625998 L4.88926087,337.663998 C4.88024638,339.221333 4.88024638,340.778667 4.88926087,342.336002 L4.88926087,342.336002 L0.139266412,342.374002 C0.130244535,340.788477 0.130244535,339.211523 0.139266412,337.625998 L0.139266412,337.625998 Z" id="Tick-minor-36" stroke="#FFFFFF" stroke-width="0.25"></path>
                            <path d="M3.35158945,293.281032 L8.06374603,293.936553 C7.84581007,295.484512 7.63711915,297.032472 7.44622627,298.580431 L7.44622627,298.580431 L2.73481202,297.991504 C2.95556557,296.256519 3.14615585,294.761605 3.35158945,293.281032 L3.35158945,293.281032 Z" id="Tick-minor-37" stroke="#FFFFFF" stroke-width="0.25"></path>
                            <path d="M12.3325616,249.743833 L16.9110095,251.00718 C16.4941496,252.508012 16.0950835,254.017627 15.7052618,255.527472 L15.7052618,255.527472 L11.1075385,254.330544 C11.5068589,252.80164 11.9152,251.272736 12.3325616,249.743833 L12.3325616,249.743833 Z" id="Tick-minor-38" stroke="#FFFFFF" stroke-width="0.25"></path>
                            <path d="M26.9214949,207.743956 L31.2911735,209.596319 C30.6843699,211.030719 30.0951346,212.473904 29.5063588,213.917318 L29.5063588,213.917318 L25.0981981,212.131253 C25.6969432,210.66882 26.3047088,209.206388 26.9214949,207.743956 L26.9214949,207.743956 Z" id="Tick-minor-39" stroke="#FFFFFF" stroke-width="0.25"></path>
                            <path d="M46.8598162,168.011252 L50.9541361,170.414647 C50.1663851,171.763193 49.3876505,173.111967 48.617931,174.469528 L48.617931,174.469528 L44.4852673,172.122935 C45.2649042,170.746434 46.0621354,169.378731 46.8598162,168.011252 L46.8598162,168.011252 Z" id="Tick-minor-40" stroke="#FFFFFF" stroke-width="0.25"></path>
                            <path d="M71.8167041,131.215628 L75.5598318,134.141728 C74.601103,135.375891 73.6513928,136.601722 72.710697,137.844898 L72.710697,137.844898 L68.9298432,134.985508 C69.880254,133.72272 70.8482525,132.460382 71.8167041,131.215628 L71.8167041,131.215628 Z" id="Tick-minor-41" stroke="#FFFFFF" stroke-width="0.25"></path>
                            <path d="M101.363645,97.9966663 L104.698111,101.378632 C103.587123,102.471594 102.476594,103.582123 101.383632,104.693111 L101.383632,104.693111 L98.0016663,101.358645 C99.1133027,100.228962 100.233962,99.1083027 101.363645,97.9966663 L101.363645,97.9966663 Z" id="Tick-minor-42" stroke="#FFFFFF" stroke-width="0.25"></path>
                            <path d="M134.990508,68.9248432 L137.849898,72.705697 C136.606722,73.6463928 135.380891,74.596103 134.146728,75.5548318 L134.146728,75.5548318 L131.220628,71.8117041 C132.465382,70.8432525 133.72772,69.875254 134.990508,68.9248432 L134.990508,68.9248432 Z" id="Tick-minor-43" stroke="#FFFFFF" stroke-width="0.25"></path>
                            <path d="M172.127935,44.4802673 L174.474528,48.612931 C173.116967,49.3826505 171.768193,50.1613851 170.419647,50.9491361 L170.419647,50.9491361 L168.016252,46.8548162 C169.383731,46.0571354 170.751434,45.2599042 172.127935,44.4802673 L172.127935,44.4802673 Z" id="Tick-minor-44" stroke="#FFFFFF" stroke-width="0.25"></path>
                            <path d="M212.136253,25.0931981 L213.922318,29.5013588 C212.478904,30.0901346 211.035719,30.6793699 209.601319,31.2861735 L209.601319,31.2861735 L207.748956,26.9164949 C209.211388,26.2997088 210.67382,25.6919432 212.136253,25.0931981 L212.136253,25.0931981 Z" id="Tick-minor-45" stroke="#FFFFFF" stroke-width="0.25"></path>
                            <path d="M212.136253,25.0931981 L213.922318,29.5013588 C212.478904,30.0901346 211.035719,30.6793699 209.601319,31.2861735 L209.601319,31.2861735 L207.748956,26.9164949 C209.211388,26.2997088 210.67382,25.6919432 212.136253,25.0931981 L212.136253,25.0931981 Z" id="Tick-minor-45" stroke="#FFFFFF" stroke-width="0.25"></path>
                            <path d="M254.335544,11.1025385 L255.532472,15.7002618 C254.022627,16.0900835 252.513012,16.4891496 251.01218,16.9060095 L251.01218,16.9060095 L249.748833,12.3275616 C251.277736,11.9102 252.80664,11.5018589 254.335544,11.1025385 L254.335544,11.1025385 Z" id="Tick-minor-46" stroke="#FFFFFF" stroke-width="0.25"></path>
                            <path d="M297.723868,2.76450316 L298.578227,7.44211473 C297.032669,7.63276661 295.487111,7.84114813 293.941553,8.05874603 L293.941553,8.05874603 L293.286032,3.34658939 C294.762481,3.14172593 296.246535,2.95247419 297.723868,2.76450316 L297.723868,2.76450316 Z" id="Tick-minor-47" stroke="#FFFFFF" stroke-width="0.25"></path>
                        </g>
                        <g id="Major-tickmarks">
                            <path d="M340.005,0.0025 C461.475,0.0025 573.715,64.8025 634.455,170.0025 C695.195,275.2025 695.195,404.8025 634.455,510.0025 C573.715,615.2025 461.475,680.0025 340.005,680.0025 C218.535,680.0025 106.295,615.2025 45.555,510.0025 C-15.185,404.8025 -15.185,275.2025 45.555,170.0025 C106.295,64.8025 218.535,0.0025 340.005,0.0025 L340.005,12.0025 C222.825,12.0025 114.535,74.5225 55.945,176.0025 C-2.645,277.4825 -2.645,402.5225 55.945,504.0025 C114.535,605.4825 222.825,668.0025 340.005,668.0025 C457.185,668.0025 565.475,605.4825 624.065,504.0025 C682.655,402.5225 682.655,277.4825 624.065,176.0025 C565.475,74.5225 457.185,12.0025 340.005,12.0025 L340.005,0.0025 Z" id="Base-plate" fill-opacity="0.002"></path>
                            <path d="M286.368218,4.38616639 C321.904365,-1.29538856 358.105635,-1.29538856 393.641782,4.38616639 L393.641782,4.38616639 L391.781362,15.9893133 C357.478984,10.5035621 322.531016,10.5035621 288.228638,15.9893133 L288.228638,15.9893133 Z" id="Tick-major-0" stroke="#FFFFFF" stroke-width="0.25"></path>
                            <path d="M418.88765,9.40308734 C453.890069,17.7534692 487.338821,31.6156427 517.993011,50.463463 L517.993011,50.463463 L511.834038,60.4705704 C482.237262,42.2788343 449.953784,28.9063851 416.165532,20.8399002 L416.165532,20.8399002 Z" id="Tick-major-3" stroke="#FFFFFF" stroke-width="0.25"></path>
                            <path d="M539.392917,64.7570534 C568.536486,85.8708093 594.136691,111.471014 615.250447,140.614583 L615.250447,140.614583 L605.732928,147.50793 C585.353609,119.372906 560.634594,94.6538907 532.49957,74.2745719 L532.49957,74.2745719 Z" id="Tick-major-6" stroke="#FFFFFF" stroke-width="0.25"></path>
                            <path d="M629.544037,162.014489 C648.391857,192.668679 662.254031,226.117431 670.604413,261.11985 L670.604413,261.11985 L659.1676,263.841968 C651.101115,230.053716 637.728666,197.770238 619.53693,168.173462 L619.53693,168.173462 Z" id="Tick-major-9" stroke="#FFFFFF" stroke-width="0.25"></path>
                            <path d="M675.621334,286.365718 C681.302889,321.901865 681.302889,358.103135 675.621334,393.639282 L675.621334,393.639282 L664.018187,391.778862 C669.503938,357.476484 669.503938,322.528516 664.018187,288.226138 L664.018187,288.226138 Z" id="Tick-major-12" stroke="#FFFFFF" stroke-width="0.25"></path>
                            <path d="M659.1676,416.163032 L670.604413,418.88515 C662.254031,453.887569 648.391857,487.336321 629.544037,517.990511 L629.544037,517.990511 L619.53693,511.831538 C637.728666,482.234762 651.101115,449.951284 659.1676,416.163032 L659.1676,416.163032 Z" id="Tick-major-15" stroke="#FFFFFF" stroke-width="0.25"></path>
                            <path d="M605.732928,532.49707 L615.250447,539.390417 C594.136691,568.533986 568.536486,594.134191 539.392917,615.247947 L539.392917,615.247947 L532.49957,605.730428 C560.634594,585.351109 585.353609,560.632094 605.732928,532.49707 L605.732928,532.49707 Z" id="Tick-major-18" stroke="#FFFFFF" stroke-width="0.25"></path>
                            <path d="M511.834038,619.53443 L517.993011,629.541537 C487.338821,648.389357 453.890069,662.251531 418.88765,670.601913 L418.88765,670.601913 L416.165532,659.1651 C449.953784,651.098615 482.237262,637.726166 511.834038,619.53443 L511.834038,619.53443 Z" id="Tick-major-21" stroke="#FFFFFF" stroke-width="0.25"></path>
                            <path d="M391.781362,664.015687 L393.641782,675.618834 C358.105635,681.300389 321.904365,681.300389 286.368218,675.618834 L286.368218,675.618834 L288.228638,664.015687 C322.531016,669.501438 357.478984,669.501438 391.781362,664.015687 L391.781362,664.015687 Z" id="Tick-major-24" stroke="#FFFFFF" stroke-width="0.25"></path>
                            <path d="M168.175962,619.53443 C197.772738,637.726166 230.056216,651.098615 263.844468,659.1651 L263.844468,659.1651 L261.12235,670.601913 C226.119931,662.251531 192.671179,648.389357 162.016989,629.541537 L162.016989,629.541537 Z" id="Tick-major-27" stroke="#FFFFFF" stroke-width="0.25"></path>
                            <path d="M74.2770719,532.49707 C94.6563907,560.632094 119.375406,585.351109 147.51043,605.730428 L147.51043,605.730428 L140.617083,615.247947 C111.473514,594.134191 85.8733093,568.533986 64.7595534,539.390417 L64.7595534,539.390417 Z" id="Tick-major-30" stroke="#FFFFFF" stroke-width="0.25"></path>
                            <path d="M20.8424002,416.163032 C28.9088851,449.951284 42.2813343,482.234762 60.4730704,511.831538 L60.4730704,511.831538 L50.465963,517.990511 C31.6181427,487.336321 17.7559692,453.887569 9.40558734,418.88515 L9.40558734,418.88515 Z" id="Tick-major-33" stroke="#FFFFFF" stroke-width="0.25"></path>
                            <path d="M4.38866639,286.365718 L15.9918133,288.226138 C10.5060621,322.528516 10.5060621,357.476484 15.9918133,391.778862 L15.9918133,391.778862 L4.38866639,393.639282 C-1.29288856,358.103135 -1.29288856,321.901865 4.38866639,286.365718 L4.38866639,286.365718 Z" id="Tick-major-36" stroke="#FFFFFF" stroke-width="0.25"></path>
                            <path d="M50.465963,162.014489 L60.4730704,168.173462 C42.2813343,197.770238 28.9088851,230.053716 20.8424002,263.841968 L20.8424002,263.841968 L9.40558734,261.11985 C17.7559692,226.117431 31.6181427,192.668679 50.465963,162.014489 L50.465963,162.014489 Z" id="Tick-major-39" stroke="#FFFFFF" stroke-width="0.25"></path>
                            <path d="M140.617083,64.7570534 L147.51043,74.2745719 C119.375406,94.6538907 94.6563907,119.372906 74.2770719,147.50793 L74.2770719,147.50793 L64.7595534,140.614583 C85.8733093,111.471014 111.473514,85.8708093 140.617083,64.7570534 L140.617083,64.7570534 Z" id="Tick-major-42" stroke="#FFFFFF" stroke-width="0.25"></path>
                            <path d="M261.12235,9.40308734 L263.844468,20.8399002 C230.056216,28.9063851 197.772738,42.2788343 168.175962,60.4705704 L168.175962,60.4705704 L162.016989,50.463463 C192.671179,31.6156427 226.119931,17.7534692 261.12235,9.40308734 L261.12235,9.40308734 Z" id="Tick-major-45" stroke="#FFFFFF" stroke-width="0.25"></path>
                        </g>
                    </g>
                    <g id="Major-tickmarks" transform="translate(520.909207, 520.909207) rotate(-8.200000) translate(-520.909207, -520.909207) translate(60.906707, 60.906707)">
                        <path d="M460.0025,0.0025 C624.3425,0.0025 776.2025,87.6825 858.3725,230.0025 C940.5425,372.3225 940.5425,547.6825 858.3725,690.0025 C776.2025,832.3225 624.3425,920.0025 460.0025,920.0025 C295.6625,920.0025 143.8025,832.3225 61.6325,690.0025 C-20.5375,547.6825 -20.5375,372.3225 61.6325,230.0025 C143.8025,87.6825 295.6625,0.0025 460.0025,0.0025 L460.0025,130.0025 C342.1025,130.0025 233.1625,192.9025 174.2125,295.0025 C115.2625,397.1025 115.2625,522.9025 174.2125,625.0025 C233.1625,727.1025 342.1025,790.0025 460.0025,790.0025 C577.9025,790.0025 686.8425,727.1025 745.7925,625.0025 C804.7425,522.9025 804.7425,397.1025 745.7925,295.0025 C686.8425,192.9025 577.9025,130.0025 460.0025,130.0025 L460.0025,0.0025 Z" id="Base-plate" fill-opacity="0.002"></path>
                        <path d="M453.12939,0.175628741 C457.71462,0.108123767 462.29038,0.108123767 466.87561,0.175628741 L466.87561,0.175628741 L464.899417,129.915672 C461.631714,129.868109 458.373286,129.868109 455.105583,129.915672 L455.105583,129.915672 Z" id="Tick-major-0" stroke="#FFFFFF" stroke-width="0.25"></path>
                        <path d="M629.622622,32.5547661 C633.8834,34.2446304 638.11525,35.9924393 642.318168,37.8076661 L642.318168,37.8076661 L590.847376,156.918085 C587.851968,155.621691 584.828262,154.363581 581.794808,153.162301 L581.794808,153.162301 Z" id="Tick-major-3" stroke="#FFFFFF" stroke-width="0.25"></path>
                        <path d="M780.285174,129.999276 C783.573574,133.191242 786.813758,136.431426 790.005724,139.719826 L790.005724,139.719826 L696.875137,230.055798 C694.601329,227.715407 692.289593,225.403671 689.949202,223.129863 L689.949202,223.129863 Z" id="Tick-major-6" stroke="#FFFFFF" stroke-width="0.25"></path>
                        <path d="M882.197334,277.686832 C884.012561,281.88975 885.76037,286.1216 887.450234,290.382378 L887.450234,290.382378 L766.842699,338.210192 C765.641419,335.176738 764.383309,332.153032 763.086915,329.157624 L763.086915,329.157624 Z" id="Tick-major-9" stroke="#FFFFFF" stroke-width="0.25"></path>
                        <path d="M919.829371,453.12939 C919.896876,457.71462 919.896876,462.29038 919.829371,466.87561 L919.829371,466.87561 L790.089328,464.899417 C790.136891,461.631714 790.136891,458.373286 790.089328,455.105583 L790.089328,455.105583 Z" id="Tick-major-12" stroke="#FFFFFF" stroke-width="0.25"></path>
                        <path d="M766.842699,581.794808 L887.450234,629.622622 C885.76037,633.8834 884.012561,638.11525 882.197334,642.318168 L882.197334,642.318168 L763.086915,590.847376 C764.383309,587.851968 765.641419,584.828262 766.842699,581.794808 L766.842699,581.794808 Z" id="Tick-major-15" stroke="#FFFFFF" stroke-width="0.25"></path>
                        <path d="M696.875137,689.949202 L790.005724,780.285174 C786.813758,783.573574 783.573574,786.813758 780.285174,790.005724 L780.285174,790.005724 L689.949202,696.875137 C692.289593,694.601329 694.601329,692.289593 696.875137,689.949202 L696.875137,689.949202 Z" id="Tick-major-18" stroke="#FFFFFF" stroke-width="0.25"></path>
                        <path d="M590.847376,763.086915 L642.318168,882.197334 C638.11525,884.012561 633.8834,885.76037 629.622622,887.450234 L629.622622,887.450234 L581.794808,766.842699 C584.828262,765.641419 587.851968,764.383309 590.847376,763.086915 L590.847376,763.086915 Z" id="Tick-major-21" stroke="#FFFFFF" stroke-width="0.25"></path>
                        <path d="M464.899417,790.089328 L466.87561,919.829371 C462.29038,919.896876 457.71462,919.896876 453.12939,919.829371 L453.12939,919.829371 L455.105583,790.089328 C458.373286,790.136891 461.631714,790.136891 464.899417,790.089328 L464.899417,790.089328 Z" id="Tick-major-24" stroke="#FFFFFF" stroke-width="0.25"></path>
                        <path d="M329.157624,763.086915 C332.153032,764.383309 335.176738,765.641419 338.210192,766.842699 L338.210192,766.842699 L290.382378,887.450234 C286.1216,885.76037 281.88975,884.012561 277.686832,882.197334 L277.686832,882.197334 Z" id="Tick-major-27" stroke="#FFFFFF" stroke-width="0.25"></path>
                        <path d="M223.129863,689.949202 C225.403671,692.289593 227.715407,694.601329 230.055798,696.875137 L230.055798,696.875137 L139.719826,790.005724 C136.431426,786.813758 133.191242,783.573574 129.999276,780.285174 L129.999276,780.285174 Z" id="Tick-major-30" stroke="#FFFFFF" stroke-width="0.25"></path>
                        <path d="M153.162301,581.794808 C154.363581,584.828262 155.621691,587.851968 156.918085,590.847376 L156.918085,590.847376 L37.8076661,642.318168 C35.9924393,638.11525 34.2446304,633.8834 32.5547661,629.622622 L32.5547661,629.622622 Z" id="Tick-major-33" stroke="#FFFFFF" stroke-width="0.25"></path>
                        <path d="M0.175628741,453.12939 L129.915672,455.105583 C129.868109,458.373286 129.868109,461.631714 129.915672,464.899417 L129.915672,464.899417 L0.175628741,466.87561 C0.108123767,462.29038 0.108123767,457.71462 0.175628741,453.12939 L0.175628741,453.12939 Z" id="Tick-major-36" stroke="#FFFFFF" stroke-width="0.25"></path>
                        <path d="M37.8076661,277.686832 L156.918085,329.157624 C155.621691,332.153032 154.363581,335.176738 153.162301,338.210192 L153.162301,338.210192 L32.5547661,290.382378 C34.2446304,286.1216 35.9924393,281.88975 37.8076661,277.686832 L37.8076661,277.686832 Z" id="Tick-major-39" stroke="#FFFFFF" stroke-width="0.25"></path>
                        <path d="M139.719826,129.999276 L230.055798,223.129863 C227.715407,225.403671 225.403671,227.715407 223.129863,230.055798 L223.129863,230.055798 L129.999276,139.719826 C133.191242,136.431426 136.431426,133.191242 139.719826,129.999276 L139.719826,129.999276 Z" id="Tick-major-42" stroke="#FFFFFF" stroke-width="0.25"></path>
                        <path d="M290.382378,32.5547661 L338.210192,153.162301 C335.176738,154.363581 332.153032,155.621691 329.157624,156.918085 L329.157624,156.918085 L277.686832,37.8076661 C281.88975,35.9924393 286.1216,34.2446304 290.382378,32.5547661 L290.382378,32.5547661 Z" id="Tick-major-45" stroke="#FFFFFF" stroke-width="0.25"></path>
                    </g>
                </g>
                <g id="Ring-innen" transform="translate(0.000000, -0.000000)">
                    <g id="Major-tickmarks" transform="translate(520.909207, 520.909207) rotate(-8.200000) translate(-520.909207, -520.909207) translate(60.906707, 60.906707)">
                        <path d="M460.0025,0.0025 C624.3425,0.0025 776.2025,87.6825 858.3725,230.0025 C940.5425,372.3225 940.5425,547.6825 858.3725,690.0025 C776.2025,832.3225 624.3425,920.0025 460.0025,920.0025 C295.6625,920.0025 143.8025,832.3225 61.6325,690.0025 C-20.5375,547.6825 -20.5375,372.3225 61.6325,230.0025 C143.8025,87.6825 295.6625,0.0025 460.0025,0.0025 L460.0025,150.0025 C349.2525,150.0025 246.9125,209.0925 191.5325,305.0025 C136.1525,400.9125 136.1525,519.0925 191.5325,615.0025 C246.9125,710.9125 349.2525,770.0025 460.0025,770.0025 C570.7525,770.0025 673.0925,710.9125 728.4725,615.0025 C783.8525,519.0925 783.8525,400.9125 728.4725,305.0025 C673.0925,209.0925 570.7525,150.0025 460.0025,150.0025 L460.0025,0.0025 Z" id="Base-plate" fill-opacity="0.002"></path>
                        <path d="M453.129386,0.175628798 C457.714619,0.108123748 462.290381,0.108123748 466.875614,0.175628798 L466.875614,0.175628798 L464.599415,149.915551 C461.540957,149.86815 458.464043,149.86815 455.405585,149.915551 L455.405585,149.915551 Z" id="Tick-major-0" stroke="#FFFFFF" stroke-width="0.25"></path>
                        <path d="M629.622626,32.5547678 C633.883404,34.244632 638.115253,35.9924407 642.318171,37.8076672 L642.318171,37.8076672 L582.917342,175.278157 C580.102233,174.062058 577.268288,172.893238 574.424736,171.762471 L574.424736,171.762471 Z" id="Tick-major-3" stroke="#FFFFFF" stroke-width="0.25"></path>
                        <path d="M780.285173,129.999275 C783.573574,133.191242 786.813758,136.431426 790.005725,139.719827 L790.005725,139.719827 L682.515218,243.985718 C680.381552,241.785683 678.219317,239.623448 676.019282,237.489782 L676.019282,237.489782 Z" id="Tick-major-6" stroke="#FFFFFF" stroke-width="0.25"></path>
                        <path d="M882.197333,277.686829 C884.012559,281.889747 885.760368,286.121596 887.450232,290.382374 L887.450232,290.382374 L748.242529,345.580264 C747.111762,342.736712 745.942942,339.902767 744.726843,337.087658 L744.726843,337.087658 Z" id="Tick-major-9" stroke="#FFFFFF" stroke-width="0.25"></path>
                        <path d="M919.829371,453.129386 C919.896876,457.714619 919.896876,462.290381 919.829371,466.875614 L919.829371,466.875614 L770.089449,464.599415 C770.13685,461.540957 770.13685,458.464043 770.089449,455.405585 L770.089449,455.405585 Z" id="Tick-major-12" stroke="#FFFFFF" stroke-width="0.25"></path>
                        <path d="M748.242529,574.424736 L887.450232,629.622626 C885.760368,633.883404 884.012559,638.115253 882.197333,642.318171 L882.197333,642.318171 L744.726843,582.917342 C745.942942,580.102233 747.111762,577.268288 748.242529,574.424736 L748.242529,574.424736 Z" id="Tick-major-15" stroke="#FFFFFF" stroke-width="0.25"></path>
                        <path d="M682.515218,676.019282 L790.005725,780.285173 C786.813758,783.573574 783.573574,786.813758 780.285173,790.005725 L780.285173,790.005725 L676.019282,682.515218 C678.219317,680.381552 680.381552,678.219317 682.515218,676.019282 L682.515218,676.019282 Z" id="Tick-major-18" stroke="#FFFFFF" stroke-width="0.25"></path>
                        <path d="M582.917342,744.726843 L642.318171,882.197333 C638.115253,884.012559 633.883404,885.760368 629.622626,887.450232 L629.622626,887.450232 L574.424736,748.242529 C577.268288,747.111762 580.102233,745.942942 582.917342,744.726843 L582.917342,744.726843 Z" id="Tick-major-21" stroke="#FFFFFF" stroke-width="0.25"></path>
                        <path d="M464.599415,770.089449 L466.875614,919.829371 C462.290381,919.896876 457.714619,919.896876 453.129386,919.829371 L453.129386,919.829371 L455.405585,770.089449 C458.464043,770.13685 461.540957,770.13685 464.599415,770.089449 L464.599415,770.089449 Z" id="Tick-major-24" stroke="#FFFFFF" stroke-width="0.25"></path>
                        <path d="M337.087658,744.726843 C339.902767,745.942942 342.736712,747.111762 345.580264,748.242529 L345.580264,748.242529 L290.382374,887.450232 C286.121596,885.760368 281.889747,884.012559 277.686829,882.197333 L277.686829,882.197333 Z" id="Tick-major-27" stroke="#FFFFFF" stroke-width="0.25"></path>
                        <path d="M237.489782,676.019282 C239.623448,678.219317 241.785683,680.381552 243.985718,682.515218 L243.985718,682.515218 L139.719827,790.005725 C136.431426,786.813758 133.191242,783.573574 129.999275,780.285173 L129.999275,780.285173 Z" id="Tick-major-30" stroke="#FFFFFF" stroke-width="0.25"></path>
                        <path d="M171.762471,574.424736 C172.893238,577.268288 174.062058,580.102233 175.278157,582.917342 L175.278157,582.917342 L37.8076672,642.318171 C35.9924407,638.115253 34.244632,633.883404 32.5547678,629.622626 L32.5547678,629.622626 Z" id="Tick-major-33" stroke="#FFFFFF" stroke-width="0.25"></path>
                        <path d="M0.175628798,453.129386 L149.915551,455.405585 C149.86815,458.464043 149.86815,461.540957 149.915551,464.599415 L149.915551,464.599415 L0.175628798,466.875614 C0.108123748,462.290381 0.108123748,457.714619 0.175628798,453.129386 L0.175628798,453.129386 Z" id="Tick-major-36" stroke="#FFFFFF" stroke-width="0.25"></path>
                        <path d="M37.8076672,277.686829 L175.278157,337.087658 C174.062058,339.902767 172.893238,342.736712 171.762471,345.580264 L171.762471,345.580264 L32.5547678,290.382374 C34.244632,286.121596 35.9924407,281.889747 37.8076672,277.686829 L37.8076672,277.686829 Z" id="Tick-major-39" stroke="#FFFFFF" stroke-width="0.25"></path>
                        <path d="M139.719827,129.999275 L243.985718,237.489782 C241.785683,239.623448 239.623448,241.785683 237.489782,243.985718 L237.489782,243.985718 L129.999275,139.719827 C133.191242,136.431426 136.431426,133.191242 139.719827,129.999275 L139.719827,129.999275 Z" id="Tick-major-42" stroke="#FFFFFF" stroke-width="0.25"></path>
                        <path d="M290.382374,32.5547678 L345.580264,171.762471 C342.736712,172.893238 339.902767,174.062058 337.087658,175.278157 L337.087658,175.278157 L277.686829,37.8076672 C281.889747,35.9924407 286.121596,34.244632 290.382374,32.5547678 L290.382374,32.5547678 Z" id="Tick-major-45" stroke="#FFFFFF" stroke-width="0.25"></path>
                    </g>
                    <g id="Major-tickmarks" transform="translate(520.904207, 520.906707) rotate(-13.700000) translate(-520.904207, -520.906707) translate(204.906707, 204.906707)">
                        <path d="M315.9975,0 C428.8975,0 533.2075,60.23 589.6575,158 C646.1075,255.77 646.1075,376.23 589.6575,474 C533.2075,571.77 428.8975,632 315.9975,632 C203.0975,632 98.7875,571.77 42.3375,474 C-14.1125,376.23 -14.1125,255.77 42.3375,158 C98.7875,60.23 203.0975,0 315.9975,0 L315.9975,10 C206.6775,10 105.6575,68.32 50.9975,163 C-3.6625,257.68 -3.6625,374.32 50.9975,469 C105.6575,563.68 206.6775,622 315.9975,622 C425.3175,622 526.3375,563.68 580.9975,469 C635.6575,374.32 635.6575,257.68 580.9975,163 C526.3375,68.32 425.3175,10 315.9975,10 L315.9975,0 Z" id="Base-plate" fill-opacity="0.002"></path>
                        <path d="M281.195611,2.05044849 C304.324348,-0.510149578 327.670652,-0.510149578 350.799389,2.05044849 L350.799389,2.05044849 L349.717136,11.7419814 C327.309935,9.2593397 304.685065,9.2593397 282.277864,11.7419814 L282.277864,11.7419814 Z" id="Tick-major-0" stroke="#FFFFFF" stroke-width="0.25"></path>
                        <path d="M403.992822,12.6248785 C426.34109,19.1079031 447.904589,28.04206 468.28774,39.2592284 L468.28774,39.2592284 L463.588264,47.8001855 C443.828989,36.9241715 422.938309,28.2728742 401.2823,21.9947038 L401.2823,21.9947038 Z" id="Tick-major-3" stroke="#FFFFFF" stroke-width="0.25"></path>
                        <path d="M513.387093,69.395731 C531.558779,83.9349353 548.062565,100.438721 562.601769,118.610407 L562.601769,118.610407 L554.987071,124.694365 C540.896312,107.088178 524.909322,91.1011881 507.303135,77.0104292 L507.303135,77.0104292 Z" id="Tick-major-6" stroke="#FFFFFF" stroke-width="0.25"></path>
                        <path d="M592.738272,163.70976 C603.95544,184.092911 612.889597,205.65641 619.372621,228.004678 L619.372621,228.004678 L610.002796,230.7152 C603.724626,209.059191 595.073329,188.168511 584.197314,168.409236 L584.197314,168.409236 Z" id="Tick-major-9" stroke="#FFFFFF" stroke-width="0.25"></path>
                        <path d="M629.947052,281.198111 C632.50765,304.326848 632.50765,327.673152 629.947052,350.801889 L629.947052,350.801889 L620.255519,349.719636 C622.73816,327.312435 622.73816,304.687565 620.255519,282.280364 L620.255519,282.280364 Z" id="Tick-major-12" stroke="#FFFFFF" stroke-width="0.25"></path>
                        <path d="M610.002796,401.2848 L619.372621,403.995322 C612.889597,426.34359 603.95544,447.907089 592.738272,468.29024 L592.738272,468.29024 L584.197314,463.590764 C595.073329,443.831489 603.724626,422.940809 610.002796,401.2848 L610.002796,401.2848 Z" id="Tick-major-15" stroke="#FFFFFF" stroke-width="0.25"></path>
                        <path d="M554.987071,507.305635 L562.601769,513.389593 C548.062565,531.561279 531.558779,548.065065 513.387093,562.604269 L513.387093,562.604269 L507.303135,554.989571 C524.909322,540.898812 540.896312,524.911822 554.987071,507.305635 L554.987071,507.305635 Z" id="Tick-major-18" stroke="#FFFFFF" stroke-width="0.25"></path>
                        <path d="M463.588264,584.199814 L468.28774,592.740772 C447.904589,603.95794 426.34109,612.892097 403.992822,619.375121 L403.992822,619.375121 L401.2823,610.005296 C422.938309,603.727126 443.828989,595.075829 463.588264,584.199814 L463.588264,584.199814 Z" id="Tick-major-21" stroke="#FFFFFF" stroke-width="0.25"></path>
                        <path d="M349.717136,620.258019 L350.799389,629.949552 C327.670652,632.51015 304.324348,632.51015 281.195611,629.949552 L281.195611,629.949552 L282.277864,620.258019 C304.685065,622.74066 327.309935,622.74066 349.717136,620.258019 L349.717136,620.258019 Z" id="Tick-major-24" stroke="#FFFFFF" stroke-width="0.25"></path>
                        <path d="M168.406736,584.199814 C188.166011,595.075829 209.056691,603.727126 230.7127,610.005296 L230.7127,610.005296 L228.002178,619.375121 C205.65391,612.892097 184.090411,603.95794 163.70726,592.740772 L163.70726,592.740772 Z" id="Tick-major-27" stroke="#FFFFFF" stroke-width="0.25"></path>
                        <path d="M77.0079292,507.305635 C91.0986881,524.911822 107.085678,540.898812 124.691865,554.989571 L124.691865,554.989571 L118.607907,562.604269 C100.436221,548.065065 83.9324353,531.561279 69.393231,513.389593 L69.393231,513.389593 Z" id="Tick-major-30" stroke="#FFFFFF" stroke-width="0.25"></path>
                        <path d="M21.9922038,401.2848 C28.2703742,422.940809 36.9216715,443.831489 47.7976855,463.590764 L47.7976855,463.590764 L39.2567284,468.29024 C28.03956,447.907089 19.1054031,426.34359 12.6223785,403.995322 L12.6223785,403.995322 Z" id="Tick-major-33" stroke="#FFFFFF" stroke-width="0.25"></path>
                        <path d="M2.04794849,281.198111 L11.7394814,282.280364 C9.2568397,304.687565 9.2568397,327.312435 11.7394814,349.719636 L11.7394814,349.719636 L2.04794849,350.801889 C-0.512649578,327.673152 -0.512649578,304.326848 2.04794849,281.198111 L2.04794849,281.198111 Z" id="Tick-major-36" stroke="#FFFFFF" stroke-width="0.25"></path>
                        <path d="M39.2567284,163.70976 L47.7976855,168.409236 C36.9216715,188.168511 28.2703742,209.059191 21.9922038,230.7152 L21.9922038,230.7152 L12.6223785,228.004678 C19.1054031,205.65641 28.03956,184.092911 39.2567284,163.70976 L39.2567284,163.70976 Z" id="Tick-major-39" stroke="#FFFFFF" stroke-width="0.25"></path>
                        <path d="M118.607907,69.395731 L124.691865,77.0104292 C107.085678,91.1011881 91.0986881,107.088178 77.0079292,124.694365 L77.0079292,124.694365 L69.393231,118.610407 C83.9324353,100.438721 100.436221,83.9349353 118.607907,69.395731 L118.607907,69.395731 Z" id="Tick-major-42" stroke="#FFFFFF" stroke-width="0.25"></path>
                        <path d="M228.002178,12.6248785 L230.7127,21.9947038 C209.056691,28.2728742 188.166011,36.9241715 168.406736,47.8001855 L168.406736,47.8001855 L163.70726,39.2592284 C184.090411,28.04206 205.65391,19.1079031 228.002178,12.6248785 L228.002178,12.6248785 Z" id="Tick-major-45" stroke="#FFFFFF" stroke-width="0.25"></path>
                    </g>
                    <g id="Group-2" transform="translate(203.906707, 202.906707)">
                        <circle id="Oval" cx="608" cy="426" r="6"></circle>
                        <circle id="Oval" cx="545" cy="529" r="6"></circle>
                        <circle id="Oval" cx="306" cy="6" r="6"></circle>
                        <circle id="Oval" cx="426" cy="26" r="6"></circle>
                        <circle id="Oval" cx="529" cy="90" r="6"></circle>
                        <circle id="Oval" cx="600" cy="188" r="6"></circle>
                        <circle id="Oval" cx="628" cy="306" r="6"></circle>
                        <circle id="Oval" cx="446" cy="600" r="6"></circle>
                        <circle id="Oval" cx="328" cy="628" r="6"></circle>
                        <circle id="Oval" cx="208" cy="608" r="6"></circle>
                        <circle id="Oval" cx="105" cy="544" r="6"></circle>
                        <circle id="Oval" cx="34" cy="446" r="6"></circle>
                        <circle id="Oval" cx="6" cy="328" r="6"></circle>
                        <circle id="Oval" cx="26" cy="208" r="6"></circle>
                        <circle id="Oval" cx="90" cy="105" r="6"></circle>
                        <circle id="Oval" cx="188" cy="34" r="6"></circle>
                    </g>
                </g>
            </g>
        </g>
        <g id="Group-8" transform="translate(25.000000, 25.000000)">
            <g id="Group-7" transform="translate(270.415548, 39.642887)">
                <path d="M211.726989,12.2470205 L151.222277,16.8991827 C150.513645,16.9544924 149.941296,17.2478166 149.505547,17.7791554 C149.070468,18.3104941 148.905658,18.9163584 149.010462,19.5967485 L156.441951,71.7599839 C156.53104,72.440374 156.844898,73.0062924 157.383211,73.4577393 C157.920909,73.9091862 158.517823,74.1072548 159.174604,74.051945 L215.310813,69.3997828 L215.897774,81.6468033 L160.693635,86.2989884 C156.82305,86.6308239 153.343765,85.4771391 150.233277,82.8379111 C147.101749,80.1986832 145.231864,76.8378991 144.633952,72.7555589 L136.351011,20.5923235 C135.652285,16.5099833 136.546326,12.9156693 139.055844,9.80938146 C141.588299,6.70309362 145.017204,4.98402054 149.33215,4.65216221 L210.776547,0 L211.726989,12.2470205 Z" id="Path" fill="#FFFFFF" fill-rule="nonzero"></path>
                <path d="M365.386347,70.2522866 C367.746821,74.1106657 368.293425,78.1858479 367.053745,82.4674215 L362.002209,100.255533 C360.896688,104.224283 358.623091,107.109321 355.187568,108.906427 C351.768789,110.694714 348.165705,110.880185 344.35588,109.471731 L289.341087,89.9707222 L305.685011,13.2738612 L362.729187,29.2695423 C366.951397,30.4993985 370.115123,32.9565527 372.212752,36.6451884 C374.28798,40.3424579 374.707337,44.1981338 373.494613,48.2033621 L368.638569,64.5251058 C368.032837,66.5939186 366.947684,68.5034839 365.386347,70.2522866 Z M359.503455,41.6069528 L318.919255,29.6792004 C318.206936,29.4752459 317.537269,29.5322635 316.910894,29.8499985 C316.285039,30.1674787 315.895493,30.6478357 315.742031,31.2911946 L312.049457,47.0259549 C311.901461,47.6670656 312.02582,48.295254 312.421902,48.9107749 C312.817349,49.5265473 313.362376,49.9403376 314.057202,50.1520206 L353.616805,62.5259457 C354.291257,62.7425885 354.937537,62.6922426 355.556299,62.3746538 C356.175585,62.0568102 356.577279,61.569368 356.76117,60.9124526 L361.342366,44.790718 C361.532476,44.1315741 361.447084,43.4882133 361.085518,42.8608894 C360.723305,42.2338167 360.195875,41.8158795 359.503455,41.6069528 Z M350.999775,95.9729668 L355.817298,78.2352749 C356.000178,77.5730009 355.918098,76.9221223 355.570397,76.282897 C355.222052,75.6439262 354.714767,75.2133703 354.048755,74.9911019 L311.525276,61.2077138 C310.836664,60.9908681 310.190689,61.0373829 309.587983,61.3469997 C308.985771,61.6563567 308.612572,62.1334721 308.468177,62.7784732 L304.671505,80.0523677 C304.53289,80.6948611 304.656487,81.329144 305.041667,81.9554752 C305.426218,82.5820612 305.953559,83.0080557 306.623893,83.2333313 L347.983446,97.5454987 C348.630663,97.7761834 349.250722,97.7368964 349.844272,97.4273793 C350.43832,97.1176026 350.823553,96.6327559 350.999775,95.9729668 Z" id="Shape" fill="#FFFFFF" fill-rule="nonzero"></path>
                <g id="Group" transform="translate(37.584452, 76.857113) rotate(-24.000000) translate(-37.584452, -76.857113) translate(13.584452, 38.357113)" stroke="#FFFFFF">
                    <line x1="6.99999988" y1="74" x2="47.9999999" y2="74" id="Path-13" stroke-width="12"></line>
                    <line x1="26.9999999" y1="77" x2="26.9999999" y2="-5.95347953e-13" id="Path-13" stroke-width="14"></line>
                    <line x1="-2.20213679e-12" y1="20.9999997" x2="23.7489417" y2="5.94793448" id="Path-14" stroke-width="14"></line>
                </g>
            </g>
        </g>
        <g id="Group-8" transform="translate(500.000000, 500.000000) rotate(90.000000) translate(-500.000000, -500.000000) translate(25.000000, 25.000000)">
            <g id="Group-7" transform="translate(270.415548, 39.642887)">
                <path d="M211.726989,12.2470205 L151.222277,16.8991827 C150.513645,16.9544924 149.941296,17.2478166 149.505547,17.7791554 C149.070468,18.3104941 148.905658,18.9163584 149.010462,19.5967485 L156.441951,71.7599839 C156.53104,72.440374 156.844898,73.0062924 157.383211,73.4577393 C157.920909,73.9091862 158.517823,74.1072548 159.174604,74.051945 L215.310813,69.3997828 L215.897774,81.6468033 L160.693635,86.2989884 C156.82305,86.6308239 153.343765,85.4771391 150.233277,82.8379111 C147.101749,80.1986832 145.231864,76.8378991 144.633952,72.7555589 L136.351011,20.5923235 C135.652285,16.5099833 136.546326,12.9156693 139.055844,9.80938146 C141.588299,6.70309362 145.017204,4.98402054 149.33215,4.65216221 L210.776547,0 L211.726989,12.2470205 Z" id="Path" fill="#FFFFFF" fill-rule="nonzero"></path>
                <path d="M365.386347,70.2522866 C367.746821,74.1106657 368.293425,78.1858479 367.053745,82.4674215 L362.002209,100.255533 C360.896688,104.224283 358.623091,107.109321 355.187568,108.906427 C351.768789,110.694714 348.165705,110.880185 344.35588,109.471731 L289.341087,89.9707222 L305.685011,13.2738612 L362.729187,29.2695423 C366.951397,30.4993985 370.115123,32.9565527 372.212752,36.6451884 C374.28798,40.3424579 374.707337,44.1981338 373.494613,48.2033621 L368.638569,64.5251058 C368.032837,66.5939186 366.947684,68.5034839 365.386347,70.2522866 Z M359.503455,41.6069528 L318.919255,29.6792004 C318.206936,29.4752459 317.537269,29.5322635 316.910894,29.8499985 C316.285039,30.1674787 315.895493,30.6478357 315.742031,31.2911946 L312.049457,47.0259549 C311.901461,47.6670656 312.02582,48.295254 312.421902,48.9107749 C312.817349,49.5265473 313.362376,49.9403376 314.057202,50.1520206 L353.616805,62.5259457 C354.291257,62.7425885 354.937537,62.6922426 355.556299,62.3746538 C356.175585,62.0568102 356.577279,61.569368 356.76117,60.9124526 L361.342366,44.790718 C361.532476,44.1315741 361.447084,43.4882133 361.085518,42.8608894 C360.723305,42.2338167 360.195875,41.8158795 359.503455,41.6069528 Z M350.999775,95.9729668 L355.817298,78.2352749 C356.000178,77.5730009 355.918098,76.9221223 355.570397,76.282897 C355.222052,75.6439262 354.714767,75.2133703 354.048755,74.9911019 L311.525276,61.2077138 C310.836664,60.9908681 310.190689,61.0373829 309.587983,61.3469997 C308.985771,61.6563567 308.612572,62.1334721 308.468177,62.7784732 L304.671505,80.0523677 C304.53289,80.6948611 304.656487,81.329144 305.041667,81.9554752 C305.426218,82.5820612 305.953559,83.0080557 306.623893,83.2333313 L347.983446,97.5454987 C348.630663,97.7761834 349.250722,97.7368964 349.844272,97.4273793 C350.43832,97.1176026 350.823553,96.6327559 350.999775,95.9729668 Z" id="Shape" fill="#FFFFFF" fill-rule="nonzero"></path>
                <g id="Group" transform="translate(37.584452, 76.857113) rotate(-24.000000) translate(-37.584452, -76.857113) translate(13.584452, 38.357113)" stroke="#FFFFFF">
                    <line x1="6.99999988" y1="74" x2="47.9999999" y2="74" id="Path-13" stroke-width="12"></line>
                    <line x1="26.9999999" y1="77" x2="26.9999999" y2="-5.95347953e-13" id="Path-13" stroke-width="14"></line>
                    <line x1="-2.20213679e-12" y1="20.9999997" x2="23.7489417" y2="5.94793448" id="Path-14" stroke-width="14"></line>
                </g>
            </g>
        </g>
        <g id="Group-8" transform="translate(500.000000, 500.000000) rotate(180.000000) translate(-500.000000, -500.000000) translate(25.000000, 25.000000)">
            <g id="Group-7" transform="translate(270.415548, 39.642887)">
                <path d="M211.726989,12.2470205 L151.222277,16.8991827 C150.513645,16.9544924 149.941296,17.2478166 149.505547,17.7791554 C149.070468,18.3104941 148.905658,18.9163584 149.010462,19.5967485 L156.441951,71.7599839 C156.53104,72.440374 156.844898,73.0062924 157.383211,73.4577393 C157.920909,73.9091862 158.517823,74.1072548 159.174604,74.051945 L215.310813,69.3997828 L215.897774,81.6468033 L160.693635,86.2989884 C156.82305,86.6308239 153.343765,85.4771391 150.233277,82.8379111 C147.101749,80.1986832 145.231864,76.8378991 144.633952,72.7555589 L136.351011,20.5923235 C135.652285,16.5099833 136.546326,12.9156693 139.055844,9.80938146 C141.588299,6.70309362 145.017204,4.98402054 149.33215,4.65216221 L210.776547,0 L211.726989,12.2470205 Z" id="Path" fill="#FFFFFF" fill-rule="nonzero"></path>
                <path d="M365.386347,70.2522866 C367.746821,74.1106657 368.293425,78.1858479 367.053745,82.4674215 L362.002209,100.255533 C360.896688,104.224283 358.623091,107.109321 355.187568,108.906427 C351.768789,110.694714 348.165705,110.880185 344.35588,109.471731 L289.341087,89.9707222 L305.685011,13.2738612 L362.729187,29.2695423 C366.951397,30.4993985 370.115123,32.9565527 372.212752,36.6451884 C374.28798,40.3424579 374.707337,44.1981338 373.494613,48.2033621 L368.638569,64.5251058 C368.032837,66.5939186 366.947684,68.5034839 365.386347,70.2522866 Z M359.503455,41.6069528 L318.919255,29.6792004 C318.206936,29.4752459 317.537269,29.5322635 316.910894,29.8499985 C316.285039,30.1674787 315.895493,30.6478357 315.742031,31.2911946 L312.049457,47.0259549 C311.901461,47.6670656 312.02582,48.295254 312.421902,48.9107749 C312.817349,49.5265473 313.362376,49.9403376 314.057202,50.1520206 L353.616805,62.5259457 C354.291257,62.7425885 354.937537,62.6922426 355.556299,62.3746538 C356.175585,62.0568102 356.577279,61.569368 356.76117,60.9124526 L361.342366,44.790718 C361.532476,44.1315741 361.447084,43.4882133 361.085518,42.8608894 C360.723305,42.2338167 360.195875,41.8158795 359.503455,41.6069528 Z M350.999775,95.9729668 L355.817298,78.2352749 C356.000178,77.5730009 355.918098,76.9221223 355.570397,76.282897 C355.222052,75.6439262 354.714767,75.2133703 354.048755,74.9911019 L311.525276,61.2077138 C310.836664,60.9908681 310.190689,61.0373829 309.587983,61.3469997 C308.985771,61.6563567 308.612572,62.1334721 308.468177,62.7784732 L304.671505,80.0523677 C304.53289,80.6948611 304.656487,81.329144 305.041667,81.9554752 C305.426218,82.5820612 305.953559,83.0080557 306.623893,83.2333313 L347.983446,97.5454987 C348.630663,97.7761834 349.250722,97.7368964 349.844272,97.4273793 C350.43832,97.1176026 350.823553,96.6327559 350.999775,95.9729668 Z" id="Shape" fill="#FFFFFF" fill-rule="nonzero"></path>
                <g id="Group" transform="translate(37.584452, 76.857113) rotate(-24.000000) translate(-37.584452, -76.857113) translate(13.584452, 38.357113)" stroke="#FFFFFF">
                    <line x1="6.99999988" y1="74" x2="47.9999999" y2="74" id="Path-13" stroke-width="12"></line>
                    <line x1="26.9999999" y1="77" x2="26.9999999" y2="-5.95347953e-13" id="Path-13" stroke-width="14"></line>
                    <line x1="-2.20213679e-12" y1="20.9999997" x2="23.7489417" y2="5.94793448" id="Path-14" stroke-width="14"></line>
                </g>
            </g>
        </g>
        <g id="Punkte-außen" transform="translate(193.679010, 193.679010)" fill="#FFFFFF">
            <g id="Group" transform="translate(306.320990, 306.320990) rotate(-4.000000) translate(-306.320990, -306.320990) translate(19.320990, 19.320990)">
                <circle id="Oval" cx="565" cy="9" r="9"></circle>
                <circle id="Oval" cx="565" cy="565" r="9"></circle>
                <circle id="Oval" cx="9" cy="565" r="9"></circle>
                <circle id="Oval" cx="9" cy="9" r="9"></circle>
            </g>
        </g>
        <g id="Group-8" transform="translate(500.000000, 500.000000) rotate(270.000000) translate(-500.000000, -500.000000) translate(25.000000, 25.000000)">
            <g id="Group-7" transform="translate(270.415548, 39.642887)">
                <path d="M211.726989,12.2470205 L151.222277,16.8991827 C150.513645,16.9544924 149.941296,17.2478166 149.505547,17.7791554 C149.070468,18.3104941 148.905658,18.9163584 149.010462,19.5967485 L156.441951,71.7599839 C156.53104,72.440374 156.844898,73.0062924 157.383211,73.4577393 C157.920909,73.9091862 158.517823,74.1072548 159.174604,74.051945 L215.310813,69.3997828 L215.897774,81.6468033 L160.693635,86.2989884 C156.82305,86.6308239 153.343765,85.4771391 150.233277,82.8379111 C147.101749,80.1986832 145.231864,76.8378991 144.633952,72.7555589 L136.351011,20.5923235 C135.652285,16.5099833 136.546326,12.9156693 139.055844,9.80938146 C141.588299,6.70309362 145.017204,4.98402054 149.33215,4.65216221 L210.776547,0 L211.726989,12.2470205 Z" id="Path" fill="#FFFFFF" fill-rule="nonzero"></path>
                <path d="M365.386347,70.2522866 C367.746821,74.1106657 368.293425,78.1858479 367.053745,82.4674215 L362.002209,100.255533 C360.896688,104.224283 358.623091,107.109321 355.187568,108.906427 C351.768789,110.694714 348.165705,110.880185 344.35588,109.471731 L289.341087,89.9707222 L305.685011,13.2738612 L362.729187,29.2695423 C366.951397,30.4993985 370.115123,32.9565527 372.212752,36.6451884 C374.28798,40.3424579 374.707337,44.1981338 373.494613,48.2033621 L368.638569,64.5251058 C368.032837,66.5939186 366.947684,68.5034839 365.386347,70.2522866 Z M359.503455,41.6069528 L318.919255,29.6792004 C318.206936,29.4752459 317.537269,29.5322635 316.910894,29.8499985 C316.285039,30.1674787 315.895493,30.6478357 315.742031,31.2911946 L312.049457,47.0259549 C311.901461,47.6670656 312.02582,48.295254 312.421902,48.9107749 C312.817349,49.5265473 313.362376,49.9403376 314.057202,50.1520206 L353.616805,62.5259457 C354.291257,62.7425885 354.937537,62.6922426 355.556299,62.3746538 C356.175585,62.0568102 356.577279,61.569368 356.76117,60.9124526 L361.342366,44.790718 C361.532476,44.1315741 361.447084,43.4882133 361.085518,42.8608894 C360.723305,42.2338167 360.195875,41.8158795 359.503455,41.6069528 Z M350.999775,95.9729668 L355.817298,78.2352749 C356.000178,77.5730009 355.918098,76.9221223 355.570397,76.282897 C355.222052,75.6439262 354.714767,75.2133703 354.048755,74.9911019 L311.525276,61.2077138 C310.836664,60.9908681 310.190689,61.0373829 309.587983,61.3469997 C308.985771,61.6563567 308.612572,62.1334721 308.468177,62.7784732 L304.671505,80.0523677 C304.53289,80.6948611 304.656487,81.329144 305.041667,81.9554752 C305.426218,82.5820612 305.953559,83.0080557 306.623893,83.2333313 L347.983446,97.5454987 C348.630663,97.7761834 349.250722,97.7368964 349.844272,97.4273793 C350.43832,97.1176026 350.823553,96.6327559 350.999775,95.9729668 Z" id="Shape" fill="#FFFFFF" fill-rule="nonzero"></path>
                <g id="Group" transform="translate(37.584452, 76.857113) rotate(-24.000000) translate(-37.584452, -76.857113) translate(13.584452, 38.357113)" stroke="#FFFFFF">
                    <line x1="6.99999988" y1="74" x2="47.9999999" y2="74" id="Path-13" stroke-width="12"></line>
                    <line x1="26.9999999" y1="77" x2="26.9999999" y2="-5.95347953e-13" id="Path-13" stroke-width="14"></line>
                    <line x1="-2.20213679e-12" y1="20.9999997" x2="23.7489417" y2="5.94793448" id="Path-14" stroke-width="14"></line>
                </g>
            </g>
        </g>
    </g>
</svg>